stateDiagram-v2
    state "read_input" as input_read_input
    state "@ri_process" as input__ri_process
    state "@ri_not_lc" as input__ri_not_lc
    state "@ri_check_w" as input__ri_check_w
    state "@ri_check_down" as input__ri_check_down
    state "@ri_check_s" as input__ri_check_s
    state "@ri_check_left" as input__ri_check_left
    state "@ri_check_a" as input__ri_check_a
    state "@ri_check_right" as input__ri_check_right
    state "@ri_check_d" as input__ri_check_d
    state "@ri_check_1" as input__ri_check_1
    state "@ri_check_2" as input__ri_check_2
    state "@ri_check_3" as input__ri_check_3
    state "@ri_check_4" as input__ri_check_4
    state "@ri_check_5" as input__ri_check_5
    state "@ri_check_6" as input__ri_check_6
    state "@ri_check_7" as input__ri_check_7
    state "@ri_check_action" as input__ri_check_action
    state "@ri_check_b" as input__ri_check_b
    state "@ri_check_x" as input__ri_check_x
    state "@ri_check_q" as input__ri_check_q
    state "@ri_unknown" as input__ri_unknown
    state "@ri_up" as input__ri_up
    state "@ri_up_move" as input__ri_up_move
    state "@ri_down" as input__ri_down
    state "@ri_down_move" as input__ri_down_move
    state "@ri_left" as input__ri_left
    state "@ri_left_move" as input__ri_left_move
    state "@ri_right" as input__ri_right
    state "@ri_right_move" as input__ri_right_move
    state "@ri_moved" as input__ri_moved
    state "@ri_sel1" as input__ri_sel1
    state "@ri_sel2" as input__ri_sel2
    state "@ri_sel3" as input__ri_sel3
    state "@ri_sel4" as input__ri_sel4
    state "@ri_sel5" as input__ri_sel5
    state "@ri_sel6" as input__ri_sel6
    state "@ri_sel7" as input__ri_sel7
    state "@ri_setsel" as input__ri_setsel
    state "@ri_build" as input__ri_build
    state "@ri_demo" as input__ri_demo
    state "@ri_quit" as input__ri_quit
    state "@ri_done" as input__ri_done

    [*] --> input_read_input
    input_read_input --> input__ri_process : Call KERNAL_GETIN
    input_read_input --> input__ri_process : Branch BNE
    input__ri_process --> input__ri_not_lc : Branch BCC
    input__ri_process --> input__ri_not_lc : Branch BCS
    input__ri_process --> input__ri_not_lc : fallthrough
    input__ri_not_lc --> input__ri_check_w : Branch BNE
    input__ri_not_lc --> input__ri_up : Jmp JMP
    input__ri_not_lc --> input__ri_check_w : fallthrough
    input__ri_check_w --> input__ri_check_down : Branch BNE
    input__ri_check_w --> input__ri_up : Jmp JMP
    input__ri_check_w --> input__ri_check_down : fallthrough
    input__ri_check_down --> input__ri_check_s : Branch BNE
    input__ri_check_down --> input__ri_down : Jmp JMP
    input__ri_check_down --> input__ri_check_s : fallthrough
    input__ri_check_s --> input__ri_check_left : Branch BNE
    input__ri_check_s --> input__ri_down : Jmp JMP
    input__ri_check_s --> input__ri_check_left : fallthrough
    input__ri_check_left --> input__ri_check_a : Branch BNE
    input__ri_check_left --> input__ri_left : Jmp JMP
    input__ri_check_left --> input__ri_check_a : fallthrough
    input__ri_check_a --> input__ri_check_right : Branch BNE
    input__ri_check_a --> input__ri_left : Jmp JMP
    input__ri_check_a --> input__ri_check_right : fallthrough
    input__ri_check_right --> input__ri_check_d : Branch BNE
    input__ri_check_right --> input__ri_right : Jmp JMP
    input__ri_check_right --> input__ri_check_d : fallthrough
    input__ri_check_d --> input__ri_check_1 : Branch BNE
    input__ri_check_d --> input__ri_right : Jmp JMP
    input__ri_check_d --> input__ri_check_1 : fallthrough
    input__ri_check_1 --> input__ri_check_2 : Branch BNE
    input__ri_check_1 --> input__ri_sel1 : Jmp JMP
    input__ri_check_1 --> input__ri_check_2 : fallthrough
    input__ri_check_2 --> input__ri_check_3 : Branch BNE
    input__ri_check_2 --> input__ri_sel2 : Jmp JMP
    input__ri_check_2 --> input__ri_check_3 : fallthrough
    input__ri_check_3 --> input__ri_check_4 : Branch BNE
    input__ri_check_3 --> input__ri_sel3 : Jmp JMP
    input__ri_check_3 --> input__ri_check_4 : fallthrough
    input__ri_check_4 --> input__ri_check_5 : Branch BNE
    input__ri_check_4 --> input__ri_sel4 : Jmp JMP
    input__ri_check_4 --> input__ri_check_5 : fallthrough
    input__ri_check_5 --> input__ri_check_6 : Branch BNE
    input__ri_check_5 --> input__ri_sel5 : Jmp JMP
    input__ri_check_5 --> input__ri_check_6 : fallthrough
    input__ri_check_6 --> input__ri_check_7 : Branch BNE
    input__ri_check_6 --> input__ri_sel6 : Jmp JMP
    input__ri_check_6 --> input__ri_check_7 : fallthrough
    input__ri_check_7 --> input__ri_check_action : Branch BNE
    input__ri_check_7 --> input__ri_sel7 : Jmp JMP
    input__ri_check_7 --> input__ri_check_action : fallthrough
    input__ri_check_action --> input__ri_check_b : Branch BNE
    input__ri_check_action --> input__ri_build : Jmp JMP
    input__ri_check_action --> input__ri_check_b : fallthrough
    input__ri_check_b --> input__ri_check_x : Branch BNE
    input__ri_check_b --> input__ri_build : Jmp JMP
    input__ri_check_b --> input__ri_check_x : fallthrough
    input__ri_check_x --> input__ri_check_q : Branch BNE
    input__ri_check_x --> input__ri_demo : Jmp JMP
    input__ri_check_x --> input__ri_check_q : fallthrough
    input__ri_check_q --> input__ri_unknown : Branch BNE
    input__ri_check_q --> input__ri_quit : Jmp JMP
    input__ri_check_q --> input__ri_unknown : fallthrough
    input__ri_up --> map_restore_cursor_color : Call restore_cursor_color
    input__ri_up --> input__ri_up_move : Branch BNE
    input__ri_up --> input__ri_done : Jmp JMP
    input__ri_up --> input__ri_up_move : fallthrough
    input__ri_up_move --> input__ri_moved : Jmp JMP
    input__ri_up_move --> input__ri_down : fallthrough
    input__ri_down --> map_restore_cursor_color : Call restore_cursor_color
    input__ri_down --> input__ri_down_move : Branch BNE
    input__ri_down --> input__ri_done : Jmp JMP
    input__ri_down --> input__ri_down_move : fallthrough
    input__ri_down_move --> input__ri_moved : Jmp JMP
    input__ri_down_move --> input__ri_left : fallthrough
    input__ri_left --> map_restore_cursor_color : Call restore_cursor_color
    input__ri_left --> input__ri_left_move : Branch BNE
    input__ri_left --> input__ri_done : Jmp JMP
    input__ri_left --> input__ri_left_move : fallthrough
    input__ri_left_move --> input__ri_moved : Jmp JMP
    input__ri_left_move --> input__ri_right : fallthrough
    input__ri_right --> map_restore_cursor_color : Call restore_cursor_color
    input__ri_right --> input__ri_right_move : Branch BNE
    input__ri_right --> input__ri_done : Jmp JMP
    input__ri_right --> input__ri_right_move : fallthrough
    input__ri_right_move --> input__ri_moved : fallthrough
    input__ri_sel1 --> input__ri_setsel : Branch BNE
    input__ri_sel1 --> input__ri_sel2 : fallthrough
    input__ri_sel2 --> input__ri_setsel : Branch BNE
    input__ri_sel2 --> input__ri_sel3 : fallthrough
    input__ri_sel3 --> input__ri_setsel : Branch BNE
    input__ri_sel3 --> input__ri_sel4 : fallthrough
    input__ri_sel4 --> input__ri_setsel : Branch BNE
    input__ri_sel4 --> input__ri_sel5 : fallthrough
    input__ri_sel5 --> input__ri_setsel : Branch BNE
    input__ri_sel5 --> input__ri_sel6 : fallthrough
    input__ri_sel6 --> input__ri_setsel : Branch BNE
    input__ri_sel6 --> input__ri_sel7 : fallthrough
    input__ri_sel7 --> input__ri_setsel : fallthrough
    input__ri_setsel --> buildings_show_building_name : Call show_building_name
    input__ri_build --> buildings_try_place_building : Call try_place_building
    input__ri_demo --> buildings_try_demolish : Call try_demolish
    input__ri_quit --> title_show_title : Call show_title
    input__ri_quit --> init_clear_screen : Call clear_screen
    input__ri_quit --> map_render_map : Call render_map
    input__ri_quit --> ui_draw_status_bar : Call draw_status_bar
    input__ri_quit --> init_enable_cursor_sprite : Call enable_cursor_sprite
    input__ri_quit --> input__ri_done : fallthrough
